<svg class="cmp-confirmationoverlay__icon" viewBox="0 0 80 80" fill="red" xmlns="http://www.w3.org/2000/svg">
<path d="M79 40C79 61.5391 61.5391 79 40 79C18.4609 79 1 61.5391 1 40C1 18.4609 18.4609 1 40 1C61.5391 1 79 18.4609 79 40Z" stroke-width="2" stroke-linecap="round" stroke-linejoin="round"></path>
<path d="M4.29181 26.6655H75.7085" stroke-width="2" stroke-linecap="round" stroke-linejoin="round"></path>
<path d="M4.29181 53.3345H75.7085" stroke-width="2" stroke-linecap="round" stroke-linejoin="round"></path>
<path d="M55.6666 39.9992C55.6666 50.6437 53.8169 60.233 50.8658 67.1238C49.3894 70.571 47.6572 73.2968 45.7846 75.1461C43.9163 76.9913 41.9627 77.9159 39.9999 77.9159C38.0371 77.9159 36.0835 76.9913 34.2152 75.1461C32.3426 73.2968 30.6103 70.571 29.134 67.1238C26.1829 60.233 24.3332 50.6437 24.3332 39.9992C24.3332 29.3548 26.1829 19.7655 29.134 12.8747C30.6103 9.42749 32.3426 6.70174 34.2152 4.85234C36.0835 3.00717 38.0371 2.08258 39.9999 2.08258C41.9627 2.08258 43.9163 3.00717 45.7846 4.85234C47.6572 6.70174 49.3894 9.42749 50.8658 12.8747C53.8169 19.7655 55.6666 29.3548 55.6666 39.9992Z" stroke-width="2" stroke-linecap="round" stroke-linejoin="round"></path>
</svg>